<?xml version="1.0" encoding="UTF-8"?>
<svg id="Layer_2" data-name="Layer 2" xmlns="http://www.w3.org/2000/svg" viewBox="0 0 106.37 106.56">
  <defs>
    <style>
      .cls-1 {
        fill: #DC64E2;
        fill-rule: evenodd;
        stroke-width: 0px;
      }
    </style>
  </defs>
  <g id="Layer_1-2" data-name="Layer 1">
    <path class="cls-1" d="M106.37,5.58V0h-6.8c-1.41,3.18-4.59,5.4-8.3,5.4s-6.89-2.22-8.3-5.4h-10.04c-1.41,3.18-4.59,5.4-8.3,5.4s-6.89-2.22-8.3-5.4h-9.08c-1.41,3.18-4.59,5.4-8.3,5.4s-6.89-2.22-8.3-5.4h-8.88c-1.41,3.18-4.59,5.4-8.3,5.4S6.58,3.18,5.17,0H0v6.08c3.18,1.41,5.4,4.59,5.4,8.3s-2.22,6.89-5.4,8.3v8.89c3.18,1.41,5.4,4.59,5.4,8.3s-2.22,6.89-5.4,8.3v9.08c3.18,1.41,5.4,4.59,5.4,8.3s-2.22,6.89-5.4,8.3v10.04c3.18,1.41,5.4,4.59,5.4,8.3s-2.22,6.89-5.4,8.3v6.08h4.78c1.12-3.74,4.59-6.47,8.69-6.47s7.58,2.73,8.69,6.47h8.1c1.12-3.74,4.59-6.47,8.69-6.47s7.58,2.73,8.69,6.47h8.29c1.12-3.74,4.59-6.47,8.69-6.47s7.58,2.73,8.69,6.47h9.26c1.12-3.74,4.59-6.47,8.69-6.47s7.57,2.73,8.69,6.47h6.41v-5.58c-3.94-.99-6.85-4.55-6.85-8.8s2.92-7.81,6.85-8.8v-9.04c-3.94-.99-6.85-4.55-6.85-8.8s2.92-7.81,6.85-8.8v-8.08c-3.94-.99-6.85-4.55-6.85-8.8s2.92-7.81,6.85-8.8v-7.89c-3.94-.99-6.85-4.55-6.85-8.8s2.92-7.81,6.85-8.8ZM73.55,19.79c3.62,0,6.56,6.89,6.56,15.35s-2.95,15.35-6.56,15.35-6.56-6.89-6.56-15.35,2.95-15.35,6.56-15.35ZM52.7,19.79c3.62,0,6.56,6.89,6.56,15.35s-2.95,15.35-6.56,15.35-6.56-6.89-6.56-15.35,2.95-15.35,6.56-15.35ZM32.05,19.79c3.62,0,6.56,6.89,6.56,15.35s-2.95,15.35-6.56,15.35-6.56-6.89-6.56-15.35,2.95-15.35,6.56-15.35ZM53.19,87.6c-17.44,0-31.6-14.01-31.85-31.39h6.21c.25,13.94,11.63,25.17,25.63,25.17s25.38-11.23,25.63-25.17h6.21c-.25,17.38-14.41,31.39-31.85,31.39Z"/>
  </g>
</svg>